{
  "asset": {
    "version": "2.0",
    "generator": "light-system textured grid"
  },
  "scene": 0,
  "scenes": [
    {
      "nodes": [
        0
      ]
    }
  ],
  "nodes": [
    {
      "mesh": 0
    }
  ],
  "meshes": [
    {
      "primitives": [
        {
          "attributes": {
            "POSITION": 0,
            "TEXCOORD_0": 1
          },
          "indices": 2,
          "material": 0,
          "mode": 4
        }
      ]
    }
  ],
  "materials": [
    {
      "name": "textured_grid"
    }
  ],
  "buffers": [
    {
      "uri": "textured_grid.bin",
      "byteLength": 409364
    }
  ],
  "bufferViews": [
    {
      "buffer": 0,
      "byteOffset": 0,
      "byteLength": 112908,
      "target": 34962
    },
    {
      "buffer": 0,
      "byteOffset": 112908,
      "byteLength": 75272,
      "target": 34962
    },
    {
      "buffer": 0,
      "byteOffset": 188180,
      "byteLength": 221184,
      "target": 34963
    }
  ],
  "accessors": [
    {
      "bufferView": 0,
      "componentType": 5126,
      "count": 9409,
      "type": "VEC3",
      "min": [
        0.0,
        -0.5857453432135512,
        0.0
      ],
      "max": [
        1.0,
        0.8758292692118159,
        1.0
      ]
    },
    {
      "bufferView": 1,
      "componentType": 5126,
      "count": 9409,
      "type": "VEC2"
    },
    {
      "bufferView": 2,
      "componentType": 5125,
      "count": 55296,
      "type": "SCALAR"
    }
  ]
}